<?xml version="1.0" encoding="UTF-8"?>
<!DOCTYPE svg PUBLIC "-//W3C//DTD SVG 1.1//EN" "http://www.w3.org/Graphics/SVG/1.1/DTD/svg11.dtd">
<!-- Creator: CorelDRAW X7 -->
<svg xmlns="http://www.w3.org/2000/svg" xml:space="preserve" width="10.9375in" height="8.51103in" version="1.1" style="shape-rendering:geometricPrecision; text-rendering:geometricPrecision; image-rendering:optimizeQuality; fill-rule:evenodd; clip-rule:evenodd"
viewBox="0 0 11012 8569"
 xmlns:xlink="http://www.w3.org/1999/xlink">
 <defs>
  <style type="text/css">
   <![CDATA[
    .fil12 {fill:#00576A}
    .fil42 {fill:#018692}
    .fil46 {fill:#018A94}
    .fil16 {fill:#018C9A}
    .fil4 {fill:#019EA9}
    .fil22 {fill:#01B2BA}
    .fil10 {fill:#01C6CE}
    .fil1 {fill:#029EAA}
    .fil24 {fill:#02ACB4}
    .fil78 {fill:#03556B}
    .fil6 {fill:#038594}
    .fil5 {fill:#03B3BC}
    .fil33 {fill:#03C4CB}
    .fil74 {fill:#05C8D3}
    .fil34 {fill:#06C5C6}
    .fil14 {fill:#095967}
    .fil23 {fill:#09BBC6}
    .fil31 {fill:#0B9CA5}
    .fil17 {fill:#0BC3CB}
    .fil27 {fill:#11CCD2}
    .fil45 {fill:#154A56}
    .fil43 {fill:#15ABB5}
    .fil56 {fill:#15BBC6}
    .fil55 {fill:#15C5CA}
    .fil32 {fill:#16545B}
    .fil30 {fill:#165966}
    .fil28 {fill:#169BA5}
    .fil37 {fill:#16B6B9}
    .fil64 {fill:#17404A}
    .fil53 {fill:#17969A}
    .fil75 {fill:#269699}
    .fil70 {fill:#2A4E56}
    .fil77 {fill:#2B2F30}
    .fil68 {fill:#30B0B2}
    .fil79 {fill:#318C90}
    .fil72 {fill:#423B33}
    .fil65 {fill:#488A95}
    .fil67 {fill:#4B7074}
    .fil25 {fill:#4FCDD0}
    .fil69 {fill:#57BEC1}
    .fil63 {fill:#5DE0E8}
    .fil62 {fill:#6B9BA6}
    .fil60 {fill:#6F9092}
    .fil59 {fill:#87DBE4}
    .fil73 {fill:#8E9391}
    .fil61 {fill:#8EB0AF}
    .fil54 {fill:#A7C2BC}
    .fil58 {fill:#B0968E}
    .fil76 {fill:#B0B4AC}
    .fil29 {fill:#BACCD3}
    .fil71 {fill:#BFECEF}
    .fil39 {fill:#C0EDF0}
    .fil18 {fill:#C7D4D7}
    .fil48 {fill:#CACECC}
    .fil38 {fill:#D18B73}
    .fil52 {fill:#D3A996}
    .fil66 {fill:#D4B6AB}
    .fil11 {fill:#D5EDF3}
    .fil44 {fill:#E7B6A6}
    .fil26 {fill:#E99885}
    .fil50 {fill:#E9AB97}
    .fil57 {fill:#E9F1F3}
    .fil21 {fill:#EA977A}
    .fil7 {fill:#EAEFF2}
    .fil19 {fill:#F3C6AF}
    .fil49 {fill:#F3D3CA}
    .fil15 {fill:#F3F3F3}
    .fil36 {fill:#F3FDFC}
    .fil40 {fill:#F4B5AE}
    .fil0 {fill:#F6F6F6}
    .fil47 {fill:#F8B398}
    .fil41 {fill:#FAC6B7}
    .fil9 {fill:#FAFBF9}
    .fil8 {fill:#FAFEFE}
    .fil35 {fill:#FBA895}
    .fil13 {fill:#FBAC8C}
    .fil51 {fill:#FBB9A8}
    .fil3 {fill:#FDA98D}
    .fil20 {fill:#FDAB92}
    .fil2 {fill:#FEFDFE}
   ]]>
  </style>
    <clipPath id="id0">
     <rect x="595" y="95" width="9913" height="5841"/>
    </clipPath>
 </defs>
 <g id="Layer_x0020_1">
  <metadata id="CorelCorpID_0Corel-Layer"/>
  <g id="_1903360807584">
   <rect class="fil0" width="11012" height="8569"/>
   <g style="clip-path:url(#id0)">
    <image x="595" y="95" width="9913" height="5841" xlink:href="bg1_Images\bg1_ImgID1.png"/>
   </g>
   <g>
    <path class="fil1" d="M6769 5470c25,26 32,54 36,91 99,85 147,573 158,735 16,244 3,630 -61,852 14,101 -50,97 -43,172l0 32c30,-25 45,5 105,24 39,12 95,25 133,30l308 -33c-96,-34 -274,-15 -382,-15 -1,-3 -4,-35 -4,-43l-10 -139c48,-46 39,18 43,-97 3,-57 -14,-66 -8,-112 26,20 27,42 62,69 0,-47 7,-67 -14,-108 -27,-50 -10,-13 -12,-16 -43,-55 -1,43 -15,-15 0,-37 3,-95 1,-128 -4,-58 4,-25 -17,-63 -56,-100 -16,116 -30,-115 -2,-31 -5,-56 18,-86 29,40 26,35 35,100 0,4 18,76 19,79 6,41 -2,70 7,115 10,52 22,62 23,126 0,0 27,17 29,-82 1,-34 -2,-79 -2,-114 15,39 25,44 42,56l70 28c4,-3 8,-13 10,-10l26 -28c2,-2 5,-5 7,-8 3,-2 5,-5 8,-7 45,-41 35,-14 51,-59 -51,11 -101,54 -172,43 -47,-73 -156,-301 -171,-385 107,61 64,248 331,315 13,-80 -3,-36 -62,-60l-17 -9c-3,-2 -5,-5 -8,-6l-31 -26c-45,-28 -56,-4 -69,-110 211,1 45,19 199,79l38 20c45,32 -38,27 70,41 20,-24 0,-19 9,24 97,-31 176,-58 273,-80 54,-12 96,-18 149,-30 47,-10 84,-28 130,-36 105,-117 272,-138 454,-100 -36,-98 -53,-199 -89,-284 -29,-69 -81,-191 -94,-245 129,97 261,366 292,557l-78 -30c73,73 77,-2 102,112 11,49 12,106 16,161l-5 61c-19,2 -67,7 -82,14 -34,15 -45,15 -37,62 87,192 84,257 55,471 110,41 335,16 396,-154 30,-22 14,-18 30,-117 21,-128 10,-345 -11,-468 -23,-139 -26,-242 -66,-397 -5,-22 -19,-54 -21,-64 -17,-99 -16,-32 20,-58 -19,-26 -56,-115 -76,-151 -184,-330 -362,-343 -690,-457 -187,-64 -192,-14 -371,16 -27,157 -395,111 -515,47 -117,-63 -129,-55 -95,-74 -72,-39 -118,-17 -133,-102 -65,19 -101,47 -152,76 -46,25 -112,45 -112,113z"/>
    <path class="fil1" d="M2661 6340c-147,-52 -100,-102 -44,-310 32,-119 83,-233 141,-329 12,22 11,6 2,52 -55,276 -68,209 -99,587zm-615 -129c36,12 1,-10 152,-12 67,0 128,5 189,18 241,52 184,184 98,209 16,13 37,32 61,45l58 14c44,70 58,33 58,145 -1,89 -12,146 0,239 79,-29 289,4 376,11 146,11 280,-16 398,-8 55,-53 324,-77 415,-87 173,-19 137,11 148,26 2,-4 7,-14 7,-12l10 -39c0,-119 -27,-859 77,-978 -3,-124 110,-248 128,-322 8,-76 44,-59 69,-134l-35 -12c-42,22 -35,25 -81,75 -120,132 -413,392 -566,463 -43,35 -84,70 -137,91l-321 -634 -71 -10c-142,22 -251,65 -380,112 -148,55 -213,73 -306,184 -81,96 -331,467 -347,616z"/>
    <path class="fil2" d="M6018 5108c24,69 102,132 153,334 36,142 39,294 44,448 60,59 94,48 92,162 53,26 8,-19 22,35 8,28 2,38 0,48 -6,33 -16,66 -29,94 -53,196 -97,447 -180,611l-66 53c-30,22 -37,27 -66,45 -92,60 -343,227 -419,245 -2,44 0,43 125,79 509,149 1068,40 1159,-566 21,-136 27,-653 6,-786l-54 -349c-4,-37 -11,-65 -36,-91 -66,-86 -42,-104 -132,-173 -155,-119 -419,-212 -610,-228 -14,18 -7,7 -9,39z"/>
    <path class="fil2" d="M4299 7507l-16 280 -13 485 -5 275 1235 0 -1 -1090 -219 -88c-22,-15 -18,-14 -23,-19l-58 1c-143,96 -683,165 -900,156z"/>
    <path class="fil2" d="M5531 8547l1243 0 -18 -154c-34,-50 -27,-67 -26,-121 4,-149 -99,-715 -92,-750 -201,36 -346,64 -579,54 -213,-10 -354,-78 -528,-100l0 1071z"/>
    <path class="fil3" d="M1963 6471c-62,137 -149,705 -20,905 12,18 19,26 31,38 31,32 -3,12 39,32 131,16 85,56 368,27 198,-19 542,-72 734,-119 117,-29 248,-75 356,-93l0 67c-32,-54 -2,-59 4,-123 6,-48 -5,-90 -7,-139l2 -43 -34 -151c-118,-8 -252,19 -398,8 -87,-7 -297,-40 -376,-11l-44 0c-56,0 -123,-4 -178,-1 -62,4 -102,36 -147,1 37,-32 77,-42 135,-42 12,-207 -94,-377 -270,-365 -73,4 -128,9 -195,9z"/>
    <path class="fil4" d="M2673 8547l1592 0 5 -275 -9 -23c-25,-101 9,80 -6,-24 -2,-11 -2,-43 -2,-55 0,-55 6,-59 -9,-113 -130,-109 -614,-98 -831,-123 -146,-17 -454,-86 -576,-138 -68,-29 -128,-72 -194,-47l30 798z"/>
    <path class="fil2" d="M5603 6400l7 49c11,88 -223,43 -277,50 -221,32 37,-28 -156,-36l6 -58c0,-3 -2,-9 -2,-12l-70 113c-1,3 -2,8 -2,11 -3,13 -2,31 -2,44 -5,-28 -24,-41 -42,-56 -70,14 -37,22 -96,40l-54 7c-243,-1 -167,22 -260,40l-54 -3c-2,0 -6,-1 -8,-2 -3,-1 -6,-2 -8,-3l-50 -35c-48,-28 -31,0 -78,-49 -23,-25 8,-16 -41,-35 -20,-8 -12,-4 -41,-3l-163 1c0,231 -50,-35 -46,251 1,60 0,45 -4,99 4,67 57,139 100,188 251,285 878,72 1179,-21 199,-61 285,-116 422,-165 -17,-41 -5,-48 -57,-58 -2,-72 -11,-124 -13,-196 -6,-174 -17,-137 40,-140 -72,-14 -45,30 -46,-56 114,-37 -16,86 103,-2l-15 -22c-35,-49 -44,-86 -139,-102l0 224 -101 3c-21,-41 -19,14 -4,-64 0,-2 9,-31 11,-35 37,-121 14,-48 -4,-131 -24,40 -34,111 -35,164z"/>
    <path class="fil4" d="M7042 8070c40,28 130,34 190,43 402,62 813,108 1202,-55 73,-31 93,-64 159,-76l65 -275c-21,-33 0,-62 -38,-88 -14,-9 -86,-16 -105,-19 -95,-15 -109,-22 -189,-47 -529,-163 -296,-163 -554,23 -220,158 -429,178 -691,190 -8,79 -43,252 8,302l-47 2z"/>
    <path class="fil5" d="M4678 4198c-9,-76 -11,-14 31,-39 22,39 36,76 124,-54 45,-67 41,-202 124,-280 164,-157 208,-256 514,-251 105,2 321,54 327,115l36 -6c31,23 14,13 36,32 71,63 33,3 75,63 63,91 -21,-20 22,33 32,39 -4,-16 22,24 6,9 51,69 4,49 31,6 11,0 29,13 71,55 50,183 73,306l88 11c71,-142 37,-276 60,-426 3,-200 -207,-406 -321,-475 -159,-96 -456,-133 -659,-93 -229,44 -364,181 -459,339 -137,230 -137,334 -126,639z"/>
    <path class="fil6" d="M8961 7106l82 56c-6,75 -20,64 -46,98 -16,20 -10,15 -18,28 -19,30 -8,25 -35,36 -75,31 43,-50 -20,7l-14 23c-82,-1 -170,-26 -233,4 41,33 -1,9 94,2 40,-3 78,1 83,40 -24,28 -29,32 -83,34 -61,1 -64,-1 -98,-31 -33,44 -42,23 -53,66l-14 -49c9,75 -24,22 -25,22 -1,-102 42,-64 2,-84 -36,-18 24,-14 -44,16 -3,1 -14,5 -19,7 -28,23 -9,54 -93,42l-355 -92c-89,-29 -148,-77 -215,-34 -24,16 -153,116 -161,125 -47,45 -68,11 -104,33 -35,21 -118,86 -209,108 -157,36 -182,71 -402,-26 -30,-14 -62,-40 -100,-51 -2,-1 -185,7 -68,-124 29,-32 -26,7 46,-42 -7,-75 57,-71 43,-172 -35,113 -137,264 -258,272l-6 102c23,21 6,-5 20,45 86,297 124,217 168,372 45,55 132,109 216,131l47 -2c-51,-50 -16,-223 -8,-302 262,-12 471,-32 691,-190 258,-186 25,-186 554,-23 80,25 94,32 189,47 19,3 91,10 105,19 38,26 17,55 38,88l-2 -254c201,10 288,-3 370,-147 185,-320 -38,-979 -113,-1304 -36,26 -37,-41 -20,58 2,10 16,42 21,64 40,155 43,258 66,397 21,123 32,340 11,468 -16,99 0,95 -30,117z"/>
    <path class="fil2" d="M4862 4237c-13,46 -15,128 7,173 16,-55 0,-30 26,-57 69,103 127,82 138,147 -29,-1 -20,5 -49,-11 -31,-17 -15,-4 -35,-35 4,83 22,28 41,72 46,7 28,-5 71,22 32,20 0,-2 26,22 2,2 7,12 9,10 1,-3 5,6 8,9 -13,24 0,15 -51,22 35,37 -10,8 35,29 38,18 9,4 19,-9l-54 42c19,16 21,27 83,28 -28,41 13,25 25,105l11 10c89,11 133,38 256,40 95,1 189,-11 272,-27 87,-58 108,-40 190,-127l122 -176c0,-5 3,-6 6,-9l6 -52 -8 -38c-75,30 -25,51 -113,55 3,-3 6,-7 8,-9 2,-2 6,-6 9,-8l110 -119c-25,12 -62,40 -92,56 -135,74 -124,-1 -124,-1 103,-33 166,-32 226,-106l-10 -49c-76,39 -409,-19 -458,-54l-4 5c-168,-13 -210,28 -349,45 -114,14 -244,16 -357,-5z"/>
    <path class="fil5" d="M3131 4312c9,-60 -3,-20 22,-35l-6 -23c4,-70 10,-63 25,-116 16,-57 7,-57 53,-97l-13 -27c-26,-172 416,-299 555,-152 80,84 36,3 129,116l-18 34c96,18 124,164 155,239 29,71 35,127 78,213 102,199 293,-103 263,-350l27 -21c-65,-204 -185,-281 -317,-397 -125,-111 -309,-187 -524,-162 -635,73 -569,680 -429,778z"/>
    <path class="fil4" d="M7514 8202c-102,115 -412,-23 -416,345l1626 0c3,-196 -89,-334 -132,-501 -49,33 -44,44 -101,67l-380 81c-305,52 -358,9 -597,8z"/>
    <path class="fil2" d="M7208 4451l-183 42c-17,108 -6,465 0,600 2,34 2,78 7,111 9,70 39,0 7,57 6,-34 -1,-96 32,-131l0 1c77,-82 -27,-201 -33,-347 47,23 68,61 108,101 42,42 73,63 110,93 121,67 164,88 340,75l133 -56c52,-42 59,-38 109,-95 40,-44 56,-83 72,-135 22,-67 87,-267 17,-316 -73,-24 -125,-44 -207,-57 -100,-16 -161,1 -249,-6 -18,15 -2,6 -31,16 -15,6 -19,5 -35,8l-197 39z"/>
    <path class="fil7" d="M4016 6760l34 193c17,95 33,97 18,195l45 0c30,107 78,89 112,154l81 44c256,90 586,20 810,-79 98,-4 198,-79 285,-84 51,-46 242,-118 315,-155 66,-33 244,-122 290,-168l0 -80c-5,-37 0,-11 -18,-27 -53,21 -62,45 -125,62 -137,49 -223,104 -422,165 -301,93 -928,306 -1179,21 -43,-49 -96,-121 -100,-188 -12,-15 -6,-6 -18,-29 -47,-87 -79,-389 -80,-475l29 -527c-104,119 -77,859 -77,978z"/>
    <path class="fil3" d="M3229 7503c-26,24 -23,8 -17,59l-11 137c12,5 24,11 28,14l26 21c3,2 6,6 9,9 64,11 225,46 285,30 100,-23 118,18 202,12 110,-8 -63,-17 167,-3 140,8 206,8 340,-24l14 -133c1,-5 1,-8 2,-12 1,-5 2,-8 3,-12 1,-4 2,-8 2,-12 13,-68 4,-147 6,-222 -31,-18 -5,4 -31,-22 -29,-29 -11,4 -29,-43 -34,-65 -82,-47 -112,-154l-45 0c-68,73 -326,124 -424,173 -181,91 -237,124 -415,182z"/>
    <path class="fil8" d="M4330 5355c-27,25 -35,33 -53,54 -7,8 -20,26 -25,31 -22,20 -1,4 -31,20 -18,74 -131,198 -128,322l-29 527c1,86 33,388 80,475 12,23 6,14 18,29 4,-54 5,-39 4,-99 -4,-286 46,-20 46,-251l163 -1c-4,-2 -10,-8 -12,-5l-61 -29c-4,-2 -57,-20 -62,-21 -2,-40 -5,-91 4,-130l26 -78c0,0 13,-18 18,-22 4,-49 -5,-45 29,-59 -35,-68 -5,-128 34,-229 152,-399 336,-343 452,-392 -3,-68 62,-186 96,-248 23,-41 47,-80 69,-114 21,-33 53,-64 68,-93 -26,-19 22,-17 -47,-11 -1,0 -46,14 -53,17 -155,49 -291,59 -468,189l-138 118z"/>
    <path class="fil2" d="M3148 4463c-51,70 25,383 155,475l58 48 23 11c189,44 243,84 424,-28 54,-33 102,-83 141,-125 42,-44 107,-96 120,-171 -25,-18 -4,-11 -36,-19l-49 -9 53 -56c-39,29 -91,43 -156,42 84,-53 90,-7 135,-97 -45,1 -101,8 -137,11 -65,7 -73,-12 -75,-9l16 11c19,-24 49,-12 98,-20l112 -35c-25,-1 -27,-17 -42,-28l0 -4c-24,-3 -397,-61 -431,-86l-113 14c-135,5 -190,52 -296,75z"/>
    <path class="fil7" d="M5569 7183c-46,27 -44,31 -98,49l-171 85c105,94 733,197 1008,173 257,-22 160,-17 336,-70 121,-8 223,-159 258,-272 64,-222 77,-608 61,-852 -11,-162 -59,-650 -158,-735l54 349c21,133 15,650 -6,786 -91,606 -650,715 -1159,566 -125,-36 -127,-35 -125,-79z"/>
    <path class="fil4" d="M7350 6674l12 27c-16,45 -6,18 -51,59 -3,2 -5,5 -8,7 -2,3 -5,6 -7,8l-26 28c-2,-3 -6,7 -10,10l-70 -28c-17,-12 -27,-17 -42,-56 0,35 3,80 2,114 -2,99 -29,82 -29,82 -1,-64 -13,-74 -23,-126 -9,-45 -1,-74 -7,-115 -1,-3 -19,-75 -19,-79 -9,-65 -6,-60 -35,-100 -23,30 -20,55 -18,86 14,231 -26,15 30,115 21,38 13,5 17,63 2,33 -1,91 -1,128 14,58 -28,-40 15,15 2,3 -15,-34 12,16 21,41 14,61 14,108 -35,-27 -36,-49 -62,-69 -6,46 11,55 8,112 -4,115 5,51 -43,97l10 139c0,8 3,40 4,43 108,0 286,-19 382,15 141,15 205,-125 279,-85l-3 98c5,-10 6,-4 14,-41 1,-5 4,-22 4,-28 4,-63 7,-19 -9,-73 7,-135 -41,-249 -88,-353 -81,-180 -157,-167 -214,-223l91 -41c-9,-43 11,-48 -9,-24 -108,-14 -25,-9 -70,-41l-38 -20c-154,-60 12,-78 -199,-79 13,106 24,82 69,110l31 26c3,1 5,4 8,6l17 9c59,24 75,-20 62,60z"/>
    <path class="fil5" d="M6873 3791c-5,61 -15,41 -19,100 76,35 80,-14 141,41l280 2c79,-117 384,-167 484,-31 99,-1 174,-32 243,-33 -19,-215 -284,-368 -532,-378 -136,-6 -282,14 -385,70 -77,41 -188,139 -212,229z"/>
    <path class="fil9" d="M4829 5488c9,59 25,41 77,71 135,80 209,293 208,457 -1,41 -5,81 -11,122 -15,93 -24,77 -41,81 -11,56 -27,184 -51,232 -35,70 -153,103 -212,49 -30,1 -50,-5 -67,-1 -50,11 13,31 -68,16 -17,-88 -12,-78 51,-83 -43,-48 -26,-59 -38,-131l-55 -185c-3,-9 -12,-50 -13,-54 -28,-131 -37,-96 -75,-116 0,81 12,200 30,269 21,79 29,132 21,213 -3,48 -4,43 -37,71 -58,-40 -3,-18 -50,-50 -191,-20 -267,-67 -210,-272 -5,4 -18,22 -18,22l-26 78c-9,39 -6,90 -4,130 5,1 58,19 62,21l61 29c2,-3 8,3 12,5 29,-1 21,-5 41,3 49,19 18,10 41,35 47,49 30,21 78,49l50 35c2,1 5,2 8,3 2,1 6,2 8,2l54 3c93,-18 17,-41 260,-40l54 -7c59,-18 26,-26 96,-40 18,15 37,28 42,56 0,-13 -1,-31 2,-44 0,-3 1,-8 2,-11l70 -113c0,3 2,9 2,12l-6 58c193,8 -65,68 156,36 54,-7 288,38 277,-50l-7 -49 -32 59 -219 18 -65 -265 -109 -392 -66 -272c6,-169 -65,-169 8,-519 -73,49 -127,129 -173,211l-118 248z"/>
    <path class="fil3" d="M5107 4001c4,-39 -2,-43 48,-62 113,-44 88,4 92,7l-140 55zm-120 -125c19,89 -5,41 -20,126 37,31 -55,28 68,28l-74 56c35,94 21,83 146,84 0,-46 -7,-125 28,-154 4,-2 11,-8 14,-4l41 -5c63,1 79,32 146,25 2,0 6,-1 9,-2 6,51 2,23 18,42 -75,0 -35,-10 -55,33 -19,41 1,59 22,79 24,-24 88,-21 126,-25l112 38 4 -5c56,3 31,14 108,20l-22 -46c-2,-6 -2,-8 -4,-14 -2,-4 -2,-7 -4,-12 -1,-4 -1,-7 -2,-11l-38 -71c66,-21 24,-11 67,-11 -7,-117 -10,-31 -50,-138 71,-60 30,-107 95,-75 -51,-50 -28,-3 -42,28 53,45 120,13 175,103l13 -37c15,-91 7,-15 -21,-45 -25,-27 -24,39 -28,-77 8,107 -9,34 57,56l-15 -65c-3,-4 -5,-6 -7,-11 -26,-51 -19,53 -28,-48l-28 -49c-52,2 -153,-43 -223,-58 -80,-18 -188,-17 -262,1 -120,30 -308,148 -326,244z"/>
    <path class="fil10" d="M8031 6481l-16 38c-85,14 -122,33 -217,34l-4 93c-2,-5 -14,-33 -40,-48 -46,-26 -54,-14 -98,5 5,115 52,56 94,100l28 80c2,2 5,5 6,7 37,56 11,55 5,121 50,32 10,15 61,26 -12,75 -7,56 12,82 79,2 72,5 111,-41 54,-65 -23,15 57,-19 26,-46 202,-187 240,-213 180,-123 168,-55 364,-94 -4,-55 -5,-112 -16,-161 -25,-114 -29,-39 -102,-112l-31 2c-182,-38 -349,-17 -454,100z"/>
    <path class="fil11" d="M8016 4170c-24,42 -30,89 -63,137l-19 -42c1,33 41,185 -7,186 70,49 5,249 -17,316 -16,52 -32,91 -72,135 -50,57 -57,53 -109,95 30,0 31,134 34,166 86,7 65,58 121,91 34,13 34,10 60,37l33 50c130,5 142,-6 248,-80 0,-470 -110,-812 -170,-1231 -10,29 -5,98 -39,140z"/>
    <path class="fil12" d="M5178 5820l109 392c99,40 32,84 100,94 34,5 171,13 183,-5l7 -10c38,-66 9,-89 37,-195 86,-336 60,-252 31,-298 -30,-47 13,48 -14,-26 -55,-151 19,-189 29,-227 -101,-8 -53,16 -138,-4 -57,-13 -104,-7 -170,-7 -29,65 11,40 -43,42 39,-64 27,11 42,-81 -39,-1 -167,-15 -170,47 -6,143 56,227 -3,278z"/>
    <path class="fil8" d="M4326 6124c-16,75 -37,134 -29,213 50,71 138,76 246,88l17 -22c22,17 9,2 25,25 8,-81 0,-134 -21,-213 -18,-69 -30,-188 -30,-269 38,20 47,-15 75,116 1,4 10,45 13,54l55 185c12,72 -5,83 38,131l8 40 76 21 39 5c-18,-220 50,-393 83,-583 -102,6 -147,56 -224,81 -2,-172 18,-259 69,-413l-67 3c-114,-1 -204,121 -249,206 -26,50 -50,117 -64,172 -60,227 -25,75 -60,160z"/>
    <path class="fil13" d="M3212 4014l13 27 -9 66 101 -15c21,20 14,-35 19,30 -27,47 -10,21 -71,37 -34,8 -44,16 -73,25 -16,50 2,52 -45,70l6 23 4 139c52,14 85,-1 76,-47 -10,-46 -61,-123 26,-136l60 5 16 21c18,-16 39,7 47,27 12,28 4,34 0,66l62 36 113 -14c61,-15 55,-3 110,-2 -7,-5 -20,44 -5,-50l6 -45c-39,-20 -18,-36 -48,-51 57,-16 86,-27 145,-19 10,-20 19,38 10,-45l2 -20c-66,36 -119,52 -147,-28 23,-23 -4,-10 39,-25 36,-12 105,-2 137,-3 21,39 43,48 47,75 10,74 -12,13 -24,63l-1 44c-13,60 -33,83 -63,121 182,6 185,5 223,71l0 4 49 -3c-5,-86 -32,-178 -60,-238 -26,-58 -95,-159 -99,-211 -41,-7 -34,-17 -77,-60 -69,-67 -147,-113 -260,-116 -81,-2 -146,15 -200,51 -28,19 -45,33 -66,58l-63 69z"/>
    <path class="fil3" d="M3327 5358c10,49 29,81 52,121l64 95c46,29 56,54 70,104 29,55 140,-43 175,-67 85,-39 159,-116 216,-172 12,-36 -7,-17 26,-55 19,-22 19,-18 47,-28 -31,-57 -40,-81 -56,-142 -14,-53 -18,-109 -45,-149 -134,2 -279,180 -491,-11 -14,13 -39,2 -13,56l-16 -101c14,-22 -48,-45 28,-12l-23 -11c-37,61 -10,113 -39,198 -45,132 -11,68 5,174z"/>
    <path class="fil6" d="M2650 7706l-7 43c66,-25 126,18 194,47 122,52 430,121 576,138 217,25 701,14 831,123 15,54 9,58 9,113 0,12 0,44 2,55 15,104 -19,-77 6,24l9 23 13 -485c-91,37 -244,38 -365,35 -60,-1 -316,-12 -369,-49 -60,16 -221,-19 -285,-30l-75 -15 -105 -32c-2,-5 -8,-3 -12,-6l-242 -62 -197 -74c11,68 32,91 17,152z"/>
    <path class="fil3" d="M5161 4903l-10 55c7,127 -33,258 42,364 96,83 254,134 400,62 169,-83 133,-188 129,-383l-4 -62c-8,-83 -6,-25 17,-44l-25 -13c-216,119 -288,96 -488,40l13 -13c0,-1 4,-4 4,-5 2,-3 29,3 -28,-35 -16,27 -10,27 -50,34z"/>
    <path class="fil14" d="M5193 5322c-16,27 37,24 -16,21l-60 -54c0,100 23,174 -5,259l66 272c59,-51 -3,-135 3,-278 3,-62 131,-48 170,-47 -15,92 -3,17 -42,81 54,-2 14,23 43,-42 66,0 113,-6 170,7 85,20 37,-4 138,4 -10,38 -84,76 -29,227 27,74 -16,-21 14,26 29,46 55,-38 -31,298 -28,106 1,129 -37,195l-7 10c-12,18 -149,10 -183,5 -68,-10 -1,-54 -100,-94l65 265 219 -18 32 -59c1,-53 11,-124 35,-164 11,-77 35,-237 75,-290 -4,-50 10,-108 26,-154 17,-128 40,-244 46,-377 7,-126 -25,-301 -17,-389 -25,-24 -6,-13 -46,-25 4,195 40,300 -129,383 -146,72 -304,21 -400,-62z"/>
    <path class="fil8" d="M5713 5946c-40,53 -64,213 -75,290 18,83 41,10 4,131 -2,4 -11,33 -11,35 -15,78 -17,23 4,64l101 -3 0 -224c95,16 104,53 139,102l15 22c-119,88 11,-35 -103,2 1,86 -26,42 46,56 -57,3 -46,-34 -40,140 2,72 11,124 13,196 52,10 40,17 57,58 63,-17 72,-41 125,-62 18,16 13,-10 18,27l5 -77c8,-115 -60,-185 -116,-233 -35,-16 -24,-4 -52,-39l71 -26c22,-43 50,-47 68,-94 -11,-131 -36,-265 -62,-397l-86 74c-49,-11 -51,-16 -70,-39 -18,21 -12,15 -28,40l-19 29c-1,-2 -3,6 -1,8l-3 -80z"/>
    <path class="fil15" d="M5768 5026c-8,88 24,263 17,389 -6,133 -29,249 -46,377l13 3c30,-150 -2,-112 68,-115 0,-59 -15,-191 28,-224 3,-1 7,-4 8,-2l17 -2c3,-1 29,0 33,0 42,1 30,6 82,-10 6,88 35,56 37,167 2,70 -3,141 0,211l45 8c3,1 9,3 13,6 -43,43 -66,27 -74,28 18,24 9,3 9,44l65 19c25,-5 12,-1 41,-13 13,-5 32,-16 44,-22 41,-367 -130,-774 -343,-894l9 47c-88,-40 -37,-36 -66,-17z"/>
    <path class="fil16" d="M7405 7373l-308 33c-38,-5 -94,-18 -133,-30 -60,-19 -75,-49 -105,-24l0 -32c-72,49 -17,10 -46,42 -117,131 66,123 68,124 38,11 70,37 100,51 220,97 245,62 402,26 91,-22 174,-87 209,-108 36,-22 57,12 104,-33 -11,-12 -16,24 -15,-36l3 -98c-74,-40 -138,100 -279,85z"/>
    <path class="fil17" d="M7479 6627l-91 41c57,56 133,43 214,223 47,104 95,218 88,353 47,-5 91,-30 88,-76 4,4 8,7 11,12 19,25 21,-2 45,-4l0 -73c-6,9 -40,-16 14,47 20,-57 12,-34 29,-30 0,0 2,3 2,3 21,20 2,11 1,11 17,-55 30,-49 70,-92 33,-35 50,-49 80,-83 -80,34 -3,-46 -57,19 -39,46 -32,43 -111,41 -19,-26 -24,-7 -12,-82 -51,-11 -11,6 -61,-26 6,-66 32,-65 -5,-121 -1,-2 -4,-5 -6,-7l-28 -80c-42,-44 -89,15 -94,-100 44,-19 52,-31 98,-5 26,15 38,43 40,48l4 -93c95,-1 132,-20 217,-34l16 -38c-46,8 -83,26 -130,36 -53,12 -95,18 -149,30 -97,22 -176,49 -273,80z"/>
    <path class="fil9" d="M4881 6504c78,-4 98,-11 121,-90 16,-55 27,-140 36,-198 -19,-16 -13,27 -13,-43l20 -157c3,-73 1,-143 -22,-212 -36,-106 -116,-197 -228,-226 -18,137 -70,229 -64,380 53,-29 135,-62 218,-80 -26,210 -87,408 -68,626z"/>
    <path class="fil6" d="M6758 8267l22 13c-27,57 -22,32 -23,94 37,-41 5,-10 16,-51l26 -67c0,16 -2,38 2,53 2,6 3,9 5,14 2,6 3,9 6,14l15 28c62,-31 24,-48 56,-110l43 45c25,22 -43,16 47,17 0,66 -12,121 10,159l26 71 89 0c4,-368 314,-230 416,-345 -247,7 -481,-90 -706,-137l-50 202z"/>
    <path class="fil18" d="M5257 7350c5,5 1,4 23,19l219 88 1 1090 31 0 0 -1071c174,22 315,90 528,100 233,10 378,-18 579,-54l6 -102c-176,53 -79,48 -336,70 -275,24 -903,-79 -1008,-173 -19,14 -22,15 -43,33z"/>
    <path class="fil19" d="M7815 4356c-129,-10 -92,-134 -35,-140 36,-4 59,22 64,55 7,44 -12,56 -29,85zm-75 -228c16,-19 -37,-13 38,-23 54,-8 97,13 105,64l-143 -41zm-269 -101c-3,2 -7,3 -10,4l-21 7c-5,1 -20,4 -25,4 -31,5 -29,3 -56,5 -46,2 -90,-5 -141,-12 15,71 26,50 14,37 71,0 168,-9 216,14 -33,-42 95,-25 119,-19 4,1 7,2 11,4 4,1 7,2 11,4 34,12 88,40 47,71l-17 7c-106,36 42,-51 -32,5 19,24 12,35 9,85 -2,44 1,75 14,102l-95 3c-10,-48 -10,-74 -15,-109 42,26 9,55 61,15 -15,-84 -32,-8 -101,-38l-13 55c0,70 9,87 -40,115l64 2c88,7 149,-10 249,6 82,13 134,33 207,57 48,-1 8,-153 7,-186 -12,-116 -56,-175 -81,-265l-382 27z"/>
    <path class="fil20" d="M5677 4047c57,-28 70,-16 109,15 11,68 6,77 -32,121 -98,-3 -96,-54 -77,-136zm2 -115c55,-22 103,6 129,42 -20,12 34,24 -38,9l-91 -51zm-2 115c-43,0 -1,-10 -67,11l38 71c1,4 1,7 2,11 2,5 2,8 4,12 2,6 2,8 4,14l22 46c-77,-6 -52,-17 -108,-20 49,35 382,93 458,54l28 -5c-2,-276 -49,-252 -65,-357l-46 -37c-37,-48 -50,-77 -121,-109 9,101 2,-3 28,48 2,5 4,7 7,11l15 65c-66,-22 -49,51 -57,-56 4,116 3,50 28,77 28,30 36,-46 21,45l-13 37c-55,-90 -122,-58 -175,-103 14,-31 -9,-78 42,-28 -65,-32 -24,15 -95,75 40,107 43,21 50,138z"/>
    <path class="fil21" d="M1971 6421l-8 50c67,0 122,-5 195,-9 176,-12 282,158 270,365 -58,0 -98,10 -135,42 45,35 85,3 147,-1 55,-3 122,1 178,1l-44 -53c-2,-2 -5,-6 -7,-7 -1,-1 -4,-5 -7,-7 10,10 -14,11 14,10 63,-1 57,-86 56,-182 -1,-91 -11,-84 -77,-115l-7 -44c-24,-13 -45,-32 -61,-45l-42 -3c-210,-22 -238,-58 -472,-2z"/>
    <path class="fil22" d="M6662 4240l27 88c5,33 13,61 30,88 4,7 20,26 25,32 108,107 -49,33 77,94 79,38 131,-23 138,-106 3,-41 0,-86 -2,-126 -2,-44 -9,-81 13,-120l-9 -162 -84 -6 -93 -4c-38,90 -92,95 -122,222z"/>
    <path class="fil2" d="M5739 5792c-16,46 -30,104 -26,154l3 80c-2,-2 0,-10 1,-8l19 -29c16,-25 10,-19 28,-40 19,23 21,28 70,39l86 -74 7 -35 91 27c0,-41 9,-20 -9,-44 8,-1 31,15 74,-28 -4,-3 -10,-5 -13,-6l-45 -8c-3,-70 2,-141 0,-211 -2,-111 -31,-79 -37,-167 -52,16 -40,11 -82,10 -4,0 -30,-1 -33,0l-17 2c-1,-2 -5,1 -8,2 -43,33 -28,165 -28,224 -70,3 -38,-35 -68,115l-13 -3z"/>
    <path class="fil23" d="M4005 5330c-12,45 15,23 -28,26 -14,52 -23,57 -73,83 -57,56 -131,133 -216,172 -37,49 -5,8 -80,64 -19,14 -18,21 -66,25l20 19c2,3 5,7 7,10 14,23 4,42 5,45 3,26 26,33 34,78 153,-71 446,-331 566,-463 46,-50 39,-53 81,-75 -43,-43 -105,-56 -173,-57l-77 73z"/>
    <path class="fil24" d="M7690 7244c16,54 13,10 9,73 0,6 -3,23 -4,28 -8,37 -9,31 -14,41 -1,60 4,24 15,36 8,-9 137,-109 161,-125 67,-43 126,5 215,34l355 92c84,12 65,-19 93,-42l47 -123c-93,7 -94,-22 -91,-1 -66,24 -25,41 -69,99 -17,-24 -22,35 -5,-44 0,-1 21,-54 24,-66 -35,-13 -248,-63 -285,-61 -58,7 -28,-1 -68,-4 -69,-6 -33,20 -98,20l-64 -19c-3,44 -10,80 -49,78 -24,-1 -26,-80 -28,-84 -24,2 -26,29 -45,4 -3,-5 -7,-8 -11,-12 3,46 -41,71 -88,76z"/>
    <path class="fil9" d="M7759 3903c-79,30 -386,33 -484,31l-280 -2 -179 0c-61,-10 -58,2 -55,67 51,-3 83,-5 116,23l84 6 32 -4 184 7 294 -4 382 -27 97 -13c26,-27 44,-15 87,-41 0,-17 3,-36 -3,-53 -15,-37 18,-24 -32,-23 -69,1 -144,32 -243,33z"/>
    <path class="fil22" d="M8030 6959c-30,34 -47,48 -80,83 -40,43 -53,37 -70,92 1,0 20,9 -1,-11 0,0 -2,-3 -2,-3 -17,-4 -9,-27 -29,30 -54,-63 -20,-38 -14,-47l0 73c2,4 4,83 28,84 39,2 46,-34 49,-78l64 19c65,0 29,-26 98,-20 40,3 10,11 68,4l-87 -51c31,-82 210,-206 285,-282 59,-42 55,-58 124,-92 19,11 26,15 47,29 -8,-47 3,-47 37,-62 15,-7 63,-12 82,-14l5 -61c-196,39 -184,-29 -364,94 -38,26 -214,167 -240,213z"/>
    <path class="fil25" d="M7884 5254c-56,-33 -35,-84 -121,-91 -24,58 -86,84 -150,82 -17,11 10,3 -34,13 -16,4 -22,4 -39,5 -17,1 -41,-2 -56,-3l-12 77 -184 -34 0 -77c-48,-23 -61,-12 -98,-47l-57 -28c-34,-16 -4,-13 -62,-20l0 -1c-13,205 28,235 440,258 98,5 371,-12 435,-57l-62 -77z"/>
    <path class="fil26" d="M4069 4673c-13,75 -78,127 -120,171 -39,42 -87,92 -141,125 -181,112 -235,72 -424,28 -76,-33 -14,-10 -28,12l16 101c-26,-54 -1,-43 13,-56 212,191 357,13 491,11 27,40 31,96 45,149 16,61 25,85 56,142 43,-3 16,19 28,-26 13,-24 43,-43 65,-69 -44,-48 -58,-25 -74,-91 -8,-36 -8,-121 -5,-159 5,-75 19,-196 87,-239l-13 -139 4 40z"/>
    <path class="fil27" d="M3079 5299l71 10 321 634c53,-21 94,-56 137,-91 -8,-45 -31,-52 -34,-78 -1,-3 9,-22 -5,-45 -2,-3 -5,-7 -7,-10l-20 -19c48,-4 47,-11 66,-25 75,-56 43,-15 80,-64 -35,24 -146,122 -175,67 -28,-16 -14,5 -45,-36 -21,-28 -18,-35 -25,-68l-64 -95c-23,-40 -42,-72 -52,-121 -27,-31 -37,-67 -49,-119l-199 60z"/>
    <path class="fil23" d="M6808 8065c225,47 459,144 706,137 239,1 292,44 597,-8l380 -81c57,-23 52,-34 101,-67l1 -64c-66,12 -86,45 -159,76 -389,163 -800,117 -1202,55 -60,-9 -150,-15 -190,-43 -84,-22 -171,-76 -216,-131l-18 126z"/>
    <path class="fil10" d="M3563 6919l33 228 35 29c63,28 73,-6 137,-27l10 -71c184,-19 83,-140 223,-144l0 -93c-4,-3 -9,-4 -13,-6l-97 -15c-35,0 -71,3 -106,5 -23,31 -15,6 -20,58 -245,0 -189,-13 -202,36z"/>
    <path class="fil28" d="M4678 4198c24,77 53,148 86,203 45,73 77,95 119,144 21,-12 20,23 14,-31l6 -12c-13,-14 -7,8 -22,-34 -12,-32 -7,-22 -12,-58 -22,-45 -20,-127 -7,-173 6,-97 38,-298 125,-361 18,-96 206,-214 326,-244 74,-18 182,-19 262,-1 70,15 171,60 223,58 -6,-61 -222,-113 -327,-115 -306,-5 -350,94 -514,251 -83,78 -79,213 -124,280 -88,130 -102,93 -124,54 -42,25 -40,-37 -31,39z"/>
    <path class="fil29" d="M4306 7346l-7 161c217,9 757,-60 900,-156 -38,-35 -89,-31 -83,-84 -224,99 -554,169 -810,79z"/>
    <path class="fil30" d="M4317 6118l9 6c35,-85 0,67 60,-160 14,-55 38,-122 64,-172 45,-85 135,-207 249,-206 43,-25 42,-18 96,-8 112,29 192,120 228,226 23,69 25,139 22,212l-20 157c0,70 -6,27 13,43l24 3c17,-4 26,12 41,-81 6,-41 10,-81 11,-122 1,-164 -73,-377 -208,-457 -52,-30 -68,-12 -77,-71 -35,39 -30,-51 -34,49l8 -40c-116,49 -300,-7 -452,392 -39,101 -69,161 -34,229z"/>
    <path class="fil31" d="M4037 4461l28 172 13 139c124,-49 210,-147 266,-259 75,-150 55,-258 57,-420l-27 21c30,247 -161,549 -263,350 -43,-86 -49,-142 -78,-213 -31,-75 -59,-221 -155,-239 4,52 73,153 99,211 28,60 55,152 60,238z"/>
    <path class="fil26" d="M2013 7446c132,149 356,66 551,76 71,-24 235,-33 324,-49 105,-19 212,-38 311,-66 41,-32 65,-29 132,-38 80,-12 69,-18 140,-41l0 -67c-108,18 -239,64 -356,93 -192,47 -536,100 -734,119 -283,29 -237,-11 -368,-27z"/>
    <path class="fil32" d="M6212 6070c-74,16 -100,-16 -79,-89 58,-19 31,-20 88,-2 23,48 24,50 -9,91zm-494 -1131c55,17 63,18 107,57 213,120 384,527 343,894 -12,6 -31,17 -44,22 -29,12 -16,8 -41,13l-11 20c-82,225 176,267 235,107 2,-114 -32,-103 -92,-162 -5,-154 -8,-306 -44,-448 -51,-202 -129,-265 -153,-334 -26,-23 -32,-33 -66,-64 -25,-23 -33,-40 -62,-63 -39,-31 -101,-63 -155,-86 -23,19 -25,-39 -17,44z"/>
    <path class="fil33" d="M8141 7185c37,-2 250,48 285,61 -10,-21 5,-146 7,-182 4,-76 -17,-78 -30,-202l-64 -10c-75,76 -254,200 -285,282l87 51z"/>
    <path class="fil23" d="M2046 6211l-61 151c32,54 59,2 242,5 62,0 184,6 216,56l42 3c86,-25 143,-157 -98,-209 -61,-13 -122,-18 -189,-18 -151,2 -116,24 -152,12z"/>
    <path class="fil34" d="M3436 6872l34 151 30 41c23,63 -16,157 27,187 49,-32 31,2 35,-80l-48 -283 49 31c13,-49 -43,-36 202,-36 5,-52 -3,-27 20,-58 35,-2 71,-5 106,-5l97 15c4,2 9,3 13,6l0 93c-140,4 -39,125 -223,144l-10 71c41,34 107,-8 163,-31 56,-24 70,-6 88,-36 25,-42 1,-21 6,-59 13,-95 -23,68 5,-28 12,-44 -9,-11 20,-42l-34 -193 -10 39c0,-2 -5,8 -7,12 -11,-15 25,-45 -148,-26 -91,10 -360,34 -415,87z"/>
    <path class="fil33" d="M6041 6300l-59 11c-18,47 -46,51 -68,94 -2,4 -5,5 -6,12 -1,7 -4,9 -5,13 -7,27 -4,7 -8,40 56,48 124,118 116,233l14 -8c36,17 33,-26 33,118 -46,-48 49,-181 22,-227 50,-14 84,33 109,-109 17,-98 47,-96 58,-206 -65,5 -138,37 -206,29z"/>
    <path class="fil35" d="M5235 4032c59,59 39,164 -42,151 -61,-10 -98,-164 42,-151zm-373 205c113,21 243,19 357,5 139,-17 181,-58 349,-45l-112 -38c-38,4 -102,1 -126,25 -21,-20 -41,-38 -22,-79 20,-43 -20,-33 55,-33 -16,-19 -12,9 -18,-42 -3,1 -7,2 -9,2 -67,7 -83,-24 -146,-25l-41 5c-3,-4 -10,2 -14,4 -35,29 -28,108 -28,154 -125,-1 -111,10 -146,-84l74 -56c-123,0 -31,3 -68,-28 15,-85 39,-37 20,-126 -87,63 -119,264 -125,361z"/>
    <path class="fil17" d="M8339 6852l64 10c13,124 34,126 30,202 -2,36 -17,161 -7,182 -3,12 -24,65 -24,66 -17,79 -12,20 5,44 44,-58 3,-75 69,-99 -3,-21 -2,8 91,1l-2 2c29,-214 32,-279 -55,-471 -21,-14 -28,-18 -47,-29 -69,34 -65,50 -124,92z"/>
    <path class="fil31" d="M6662 4240c-44,118 21,285 75,356 58,76 152,171 269,208l-36 -614c-22,39 -15,76 -13,120 2,40 5,85 2,126 -7,83 -59,144 -138,106 -126,-61 31,13 -77,-94 -5,-6 -21,-25 -25,-32 -17,-27 -25,-55 -30,-88l-27 -88z"/>
    <path class="fil16" d="M8565 7260l2 -2 -47 123c5,-2 16,-6 19,-7 68,-30 8,-34 44,-16 40,20 -3,-18 -2,84 1,0 34,53 25,-22l14 49c11,-43 20,-22 53,-66 34,30 37,32 98,31 54,-2 59,-6 83,-34 -5,-39 -43,-43 -83,-40 -95,7 -53,31 -94,-2 63,-30 151,-5 233,-4l14 -23c63,-57 -55,24 20,-7 27,-11 16,-6 35,-36 8,-13 2,-8 18,-28 26,-34 40,-23 46,-98l-82 -56c-61,170 -286,195 -396,154z"/>
    <path class="fil31" d="M2564 7522l68 46c5,54 -3,102 18,138 15,-61 -6,-84 -17,-152l197 74c-8,-57 -6,-18 36,-36 0,0 60,-16 66,-17 39,-9 93,-12 120,-21 72,-61 1,-81 84,-94 -14,30 -18,42 -27,80 43,-14 63,-9 101,-39 21,-18 -4,-1 23,-24l37 -63c-31,-20 -24,-13 -71,-7 -99,28 -206,47 -311,66 -89,16 -253,25 -324,49z"/>
    <path class="fil36" d="M6041 6274l259 -45c13,-28 23,-61 29,-94 2,-10 8,-20 0,-48 -14,-54 31,-9 -22,-35 -59,160 -317,118 -235,-107l-128 -39c24,129 55,225 73,361l24 7z"/>
    <path class="fil37" d="M6041 6274l0 26c68,8 141,-24 206,-29 -11,110 -41,108 -58,206 -25,142 -59,95 -109,109 27,46 -68,179 -22,227 0,-144 3,-101 -33,-118l-4 169 99 -24c83,-164 127,-415 180,-611l-259 45z"/>
    <path class="fil38" d="M3471 7328c-71,23 -60,29 -140,41 -67,9 -91,6 -132,38 47,-6 40,-13 71,7l-37 63 -4 26c178,-58 234,-91 415,-182 98,-49 356,-100 424,-173 -78,34 -61,21 -155,37 -225,39 -327,120 -428,119 -7,-74 14,-183 -17,-238 2,49 13,91 7,139 -6,64 -36,69 -4,123z"/>
    <path class="fil39" d="M6756 8393l2 -126 50 -202 18 -126c-44,-155 -82,-75 -168,-372 -14,-50 3,-24 -20,-45 -7,35 96,601 92,750 -1,54 -8,71 26,121z"/>
    <path class="fil40" d="M7596 5053c-39,27 -77,26 -132,26 -1,84 20,79 20,154l129 12c64,2 126,-24 150,-82 -3,-32 -4,-166 -34,-166l-133 56z"/>
    <path class="fil28" d="M5993 3884c16,105 63,81 65,357 2,42 4,83 1,126 -1,16 -2,33 -7,49 -17,58 -16,34 -28,49l-6 52c96,-47 164,-179 197,-287 37,-122 76,-329 28,-442 -23,150 11,284 -60,426l-88 -11c-23,-123 -2,-251 -73,-306 -18,-13 2,-7 -29,-13z"/>
    <path class="fil41" d="M7190 5179c37,35 50,24 98,47l196 34c15,1 39,4 56,3 17,-1 23,-1 39,-5 44,-10 17,-2 34,-13l-129 -12c0,-75 -21,-70 -20,-154 55,0 93,1 132,-26 -176,13 -219,-8 -340,-75l18 101c-26,19 -42,13 -63,42l68 28c-41,35 -17,5 -89,30z"/>
    <path class="fil42" d="M6756 8393l18 154 235 0 -26 -71c-22,-38 -10,-93 -10,-159 -90,-1 -22,5 -47,-17l-43 -45c-32,62 6,79 -56,110l-15 -28c-3,-5 -4,-8 -6,-14 -2,-5 -3,-8 -5,-14 -4,-15 -2,-37 -2,-53l-26 67c-11,41 21,10 -16,51 1,-62 -4,-37 23,-94l-22 -13 -2 126z"/>
    <path class="fil26" d="M5161 4903c40,-7 34,-7 50,-34 57,38 30,32 28,35 0,1 -4,4 -4,5l-13 13c200,56 272,79 488,-40l-10 -53c-83,16 -177,28 -272,27 -123,-2 -167,-29 -256,-40l-11 87z"/>
    <path class="fil29" d="M6006 6780l0 80c-46,46 -224,135 -290,168 -73,37 -264,109 -315,155 68,-10 36,-12 84,15l-14 34c54,-18 52,-22 98,-49 76,-18 327,-185 419,-245 29,-18 36,-23 66,-45l66 -53 -99 24 4 -169 -14 8 -5 77z"/>
    <path class="fil43" d="M3768 7149c-64,21 -74,55 -137,27l-35 -29 -13 91c-12,-14 -7,2 -20,-33 -1,-4 -1,-30 -1,-34 -4,82 14,48 -35,80 -43,-30 -4,-124 -27,-187l-30 -41 -2 43c31,55 10,164 17,238 101,1 203,-80 428,-119 94,-16 77,-3 155,-37 15,-98 -1,-100 -18,-195 -29,31 -8,-2 -20,42 -28,96 8,-67 -5,28 -5,38 19,17 -6,59 -18,30 -32,12 -88,36 -56,23 -122,65 -163,31z"/>
    <path class="fil44" d="M7071 5131c58,7 28,4 62,20l57 28c72,-25 48,5 89,-30l-68 -28c21,-29 37,-23 63,-42l-18 -101c-37,-30 -68,-51 -110,-93 -40,-40 -61,-78 -108,-101 6,146 110,265 33,347z"/>
    <path class="fil45" d="M5036 5042c-15,29 -47,60 -68,93 -22,34 -46,73 -69,114 -34,62 -99,180 -96,248l-8 40c4,-100 -1,-10 34,-49l118 -248c46,-82 100,-162 173,-211 -73,350 -2,350 -8,519 28,-85 5,-159 5,-259l60 54c53,3 0,6 16,-21 -75,-106 -35,-237 -42,-364 -25,13 -36,16 -58,36 -40,34 -11,22 -57,48z"/>
    <path class="fil46" d="M2661 6340c31,-378 44,-311 99,-587 9,-46 10,-30 -2,-52 -58,96 -109,210 -141,329 -56,208 -103,258 44,310z"/>
    <path class="fil16" d="M8485 6381l31 -2 78 30c-31,-191 -163,-460 -292,-557 13,54 65,176 94,245 36,85 53,186 89,284z"/>
    <path class="fil47" d="M3777 4142c-39,11 -78,4 -108,-27 62,-8 111,-8 151,41l-45 6c9,83 0,25 -10,45 -59,-8 -88,3 -145,19 30,15 9,31 48,51 34,-60 21,-52 100,-42 40,114 -23,159 -106,87 -15,94 -2,45 5,50 -55,-1 -49,-13 -110,2 34,25 407,83 431,86 -38,-66 -41,-65 -223,-71 30,-38 50,-61 63,-121l1 -44c12,-50 34,11 24,-63 -4,-27 -26,-36 -47,-75 -32,1 -101,-9 -137,3 -43,15 -16,2 -39,25 28,80 81,64 147,28z"/>
    <path class="fil23" d="M7776 5410c-109,12 -208,22 -319,16 -111,-5 -203,-37 -291,-43 -34,19 -22,11 95,74 120,64 488,110 515,-47z"/>
    <path class="fil48" d="M4838 6498l43 6c-19,-218 42,-416 68,-626 -83,18 -165,51 -218,80 -6,-151 46,-243 64,-380 -54,-10 -53,-17 -96,8l67 -3c-51,154 -71,241 -69,413 77,-25 122,-75 224,-81 -33,190 -101,363 -83,583z"/>
    <path class="fil41" d="M7138 4108c-11,41 -18,39 -24,79 33,33 23,-3 95,33 -13,109 -6,98 10,205 21,-20 24,-27 63,-33l-28 -30c-1,-2 -3,-5 -4,-7 -1,-2 -2,-6 -3,-8 -26,-66 -8,-36 -8,-99 0,-4 0,-8 0,-11l-7 -27c-8,-22 -50,-56 28,-110l43 10 85 7 4 13c78,-2 21,-10 43,34 -33,17 -13,3 -41,28 -30,26 -18,0 -30,37l20 5c37,8 18,2 37,15 3,2 22,20 26,22l13 -55c2,-38 5,-37 3,-56 0,-4 -14,-73 -15,-74 -48,-23 -145,-14 -216,-14 12,13 1,34 -14,-37 51,7 95,14 141,12 27,-2 25,0 56,-5 5,0 20,-3 25,-4l21 -7c3,-1 7,-2 10,-4l-294 4c-4,46 -2,54 -39,77z"/>
    <path class="fil19" d="M7033 4425l-8 68 183 -42 11 -26c-16,-107 -23,-96 -10,-205 -72,-36 -62,0 -95,-33 -47,47 -75,177 -81,238z"/>
    <path class="fil49" d="M7219 4425l-11 26 197 -39c16,-3 20,-2 35,-8 29,-10 13,-1 31,-16l-64 -2c49,-28 40,-45 40,-115 -4,-2 -23,-20 -26,-22 -19,-13 0,-7 -37,-15l11 104c-24,23 -22,31 -65,36 -46,-33 -59,-44 -37,-124l71 -21c12,-37 0,-11 30,-37 28,-25 8,-11 41,-28 -22,-44 35,-36 -43,-34l-158 52c23,-55 -5,-16 31,-51l38 -21 -43 -10c-78,54 -36,88 -28,110l7 27c0,3 0,7 0,11 0,63 -18,33 8,99 1,2 2,6 3,8 1,2 3,5 4,7l28 30c-39,6 -42,13 -63,33z"/>
    <path class="fil50" d="M7275 3934c98,2 405,-1 484,-31 -100,-136 -405,-86 -484,31z"/>
    <path class="fil51" d="M7448 4086c1,1 15,70 15,74 2,19 -1,18 -3,56 69,30 86,-46 101,38 -52,40 -19,11 -61,-15 5,35 5,61 15,109l95 -3c-13,-27 -16,-58 -14,-102 3,-50 10,-61 -9,-85 74,-56 -74,31 32,-5l17 -7c41,-31 -13,-59 -47,-71 -4,-2 -7,-3 -11,-4 -4,-2 -7,-3 -11,-4 -24,-6 -152,-23 -119,19z"/>
    <path class="fil52" d="M3549 7773c53,37 309,48 369,49 121,3 274,2 365,-35l16 -280 7 -161 -81 -44c18,47 0,14 29,43 26,26 0,4 31,22 -2,75 7,154 -6,222 0,4 -1,8 -2,12 -1,4 -2,7 -3,12 -1,4 -1,7 -2,12l-14 133c-134,32 -200,32 -340,24 -230,-14 -57,-5 -167,3 -84,6 -102,-35 -202,-12z"/>
    <path class="fil53" d="M3212 4014l63 -69c21,-25 38,-39 66,-58 54,-36 119,-53 200,-51 113,3 191,49 260,116 43,43 36,53 77,60l18 -34c-93,-113 -49,-32 -129,-116 -139,-147 -581,-20 -555,152z"/>
    <path class="fil54" d="M5116 7267c-6,53 45,49 83,84l58 -1c21,-18 24,-19 43,-33l171 -85 14 -34c-48,-27 -16,-25 -84,-15 -87,5 -187,80 -285,84z"/>
    <path class="fil16" d="M7362 6701l-12 -27c-267,-67 -224,-254 -331,-315 15,84 124,312 171,385 71,11 121,-32 172,-43z"/>
    <path class="fil36" d="M4897 4514c16,14 10,8 20,28 2,3 4,7 5,10l23 59c38,73 141,162 216,195 -12,-80 -53,-64 -25,-105 -62,-1 -64,-12 -83,-28l54 -42c-10,13 19,27 -19,9 -45,-21 0,8 -35,-29 51,-7 38,2 51,-22 -3,-3 -7,-12 -8,-9 -2,2 -7,-8 -9,-10 -26,-24 6,-2 -26,-22 -43,-27 -25,-15 -71,-22l-12 25c-2,-5 -15,6 -16,8l-36 -76 -23 19 -6 12z"/>
    <path class="fil37" d="M7017 4193c-10,55 -11,72 -6,127l22 105c6,-61 34,-191 81,-238 6,-40 13,-38 24,-79l4 -59 -134 -7 9 151z"/>
    <path class="fil55" d="M3052 7554c0,21 -3,53 -2,72 2,18 0,21 6,39 21,67 -18,6 16,25 4,3 10,1 12,6l105 32c-18,-8 -12,-46 -11,-75 0,-2 6,-47 6,-47 24,-69 1,-14 28,-44 -6,-51 -9,-35 17,-59l4 -26c-27,23 -2,6 -23,24 -38,30 -58,25 -101,39 9,-38 13,-50 27,-80 -83,13 -12,33 -84,94z"/>
    <path class="fil56" d="M7904 4041c-18,-43 17,8 -11,-13 1,-7 55,-12 77,-12 14,60 16,45 -17,88 -51,-24 -12,26 -49,-63zm-51 -41c25,90 69,149 81,265l19 42c33,-48 39,-95 63,-137 8,-80 0,-118 -21,-188l-45 5 -97 13z"/>
    <path class="fil44" d="M3153 4277c-25,15 -13,-25 -22,35 0,26 -2,57 -1,83 1,9 3,30 5,39 5,27 3,14 13,29 106,-23 161,-70 296,-75l-62 -36c4,-32 12,-38 0,-66 -8,-20 -29,-43 -47,-27 21,56 20,62 -18,105 -109,9 -76,-72 -58,-131 -87,13 -36,90 -26,136 9,46 -24,61 -76,47l-4 -139z"/>
    <path class="fil57" d="M6024 4465c12,-15 11,9 28,-49 5,-16 6,-33 7,-49 3,-43 1,-84 -1,-126l-28 5 10 49c-60,74 -123,73 -226,106 0,0 -11,75 124,1 30,-16 67,-44 92,-56l-110 119c-3,2 -7,6 -9,8 -2,2 -5,6 -8,9 88,-4 38,-25 113,-55l8 38z"/>
    <path class="fil17" d="M2830 7628l242 62c-34,-19 5,42 -16,-25 -6,-18 -4,-21 -6,-39 -1,-19 2,-51 2,-72 -27,9 -81,12 -120,21 -6,1 -66,17 -66,17 -42,18 -44,-21 -36,36z"/>
    <path class="fil48" d="M5920 5914c26,132 51,266 62,397l59 -11 0 -26 -24 -7c-18,-136 -49,-232 -73,-361l128 39 11 -20 -65 -19 -91 -27 -7 35z"/>
    <path class="fil58" d="M2618 6869l44 0c-12,-93 -1,-150 0,-239 0,-112 -14,-75 -58,-145l-58 -14 7 44c66,31 76,24 77,115 1,96 7,181 -56,182 -28,1 -4,0 -14,-10 3,2 6,6 7,7 2,1 5,5 7,7l44 53z"/>
    <path class="fil15" d="M4069 4673l-4 -40 -28 -172 -49 3c15,11 17,27 42,28l-112 35c-49,8 -79,-4 -98,20l-16 -11c2,-3 10,16 75,9 36,-3 92,-10 137,-11 -45,90 -51,44 -135,97 65,1 117,-13 156,-42l-53 56 49 9c32,8 11,1 36,19z"/>
    <path class="fil45" d="M5677 4047c-19,82 -21,133 77,136 38,-44 43,-53 32,-121 -39,-31 -52,-43 -109,-15z"/>
    <polygon class="fil59" points="7484,5260 7288,5226 7288,5303 7472,5337 "/>
    <path class="fil7" d="M4869 4410c5,36 0,26 12,58 15,42 9,20 22,34l23 -19 36 76c1,-2 14,-13 16,-8l12 -25c-19,-44 -37,11 -41,-72 20,31 4,18 35,35 29,16 20,10 49,11 -11,-65 -69,-44 -138,-147 -26,27 -10,2 -26,57z"/>
    <path class="fil60" d="M4288 6177c-57,205 19,252 210,272 4,-1 13,-4 15,-5l30 -19c-108,-12 -196,-17 -246,-88 -8,-79 13,-138 29,-213l-9 -6c-34,14 -25,10 -29,59z"/>
    <path class="fil61" d="M1971 6421c234,-56 262,-20 472,2 -32,-50 -154,-56 -216,-56 -183,-3 -210,49 -242,-5 -23,24 -25,21 -14,59z"/>
    <path class="fil62" d="M7384 4234l-20 -5 -71 21c-22,80 -9,91 37,124 43,-5 41,-13 65,-36l-11 -104z"/>
    <path class="fil63" d="M3562 7171c0,4 0,30 1,34 13,35 8,19 20,33l13 -91 -33 -228 -49 -31 48 283z"/>
    <path class="fil45" d="M3668 4277l-6 45c83,72 146,27 106,-87 -79,-10 -66,-18 -100,42z"/>
    <path class="fil64" d="M5233 4075c11,47 15,27 -8,70l-38 1c-39,-82 -13,-62 46,-71zm2 -43c-140,-13 -103,141 -42,151 81,13 101,-92 42,-151z"/>
    <path class="fil45" d="M3335 4259l-16 -21 -60 -5c-18,59 -51,140 58,131 38,-43 39,-49 18,-105z"/>
    <path class="fil28" d="M5826 3738c71,32 84,61 121,109l46 37c47,20 2,-40 -4,-49 -26,-40 10,15 -22,-24 -43,-53 41,58 -22,-33 -42,-60 -4,0 -75,-63 -22,-19 -5,-9 -36,-32l-36 6 28 49z"/>
    <path class="fil65" d="M6212 6070c33,-41 32,-43 9,-91 -57,-18 -30,-17 -88,2 -21,73 5,105 79,89z"/>
    <path class="fil66" d="M3147 4254c47,-18 29,-20 45,-70 16,-72 77,-64 144,-62 -5,-65 2,-10 -19,-30l-101 15 9 -66c-46,40 -37,40 -53,97 -15,53 -21,46 -25,116z"/>
    <path class="fil67" d="M4881 6504l-43 -6 -39 -5 0 7c59,54 177,21 212,-49 24,-48 40,-176 51,-232l-24 -3c-9,58 -20,143 -36,198 -23,79 -43,86 -121,90z"/>
    <path class="fil67" d="M7804 4311c-3,1 -4,23 -29,-1 -49,-48 20,-68 40,-75 7,35 16,37 -11,76zm11 45c17,-29 36,-41 29,-85 -5,-33 -28,-59 -64,-55 -57,6 -94,130 35,140z"/>
    <path class="fil68" d="M6816 3932l179 0c-61,-55 -65,-6 -141,-41 4,-59 14,-39 19,-100 -19,15 -9,-2 -31,31 0,1 -13,29 -13,29 -16,41 -15,34 -13,81z"/>
    <path class="fil69" d="M7017 4193l-9 -151 134 7 -4 59c37,-23 35,-31 39,-77l-184 -7c1,43 -9,153 24,169z"/>
    <path class="fil70" d="M4799 6500l0 -7 -76 -21 -8 -40c-63,5 -68,-5 -51,83 81,15 18,-5 68,-16 17,-4 37,2 67,1z"/>
    <path class="fil71" d="M5722 5001c40,12 21,1 46,25 29,-19 -22,-23 66,17l-9 -47c-44,-39 -52,-40 -107,-57l4 62z"/>
    <path class="fil72" d="M5107 4001l140 -55c-4,-3 21,-51 -92,-7 -50,19 -44,23 -48,62z"/>
    <path class="fil73" d="M7392 4130l-4 -13 -85 -7 -38 21c-36,35 -8,-4 -31,51l158 -52z"/>
    <path class="fil74" d="M7893 4028c28,21 -7,-30 11,13 37,89 -2,39 49,63 33,-43 31,-28 17,-88 -22,0 -76,5 -77,12z"/>
    <path class="fil67" d="M7740 4128l143 41c-8,-51 -51,-72 -105,-64 -75,10 -22,4 -38,23z"/>
    <path class="fil75" d="M4221 5460c30,-16 9,0 31,-20 5,-5 18,-23 25,-31 18,-21 26,-29 53,-54l5 -21 -45 -8c-25,75 -61,58 -69,134z"/>
    <path class="fil76" d="M3189 7728l75 15c-3,-3 -6,-7 -9,-9l-26 -21c-4,-3 -16,-9 -28,-14l11 -137c-27,30 -4,-25 -28,44 0,0 -6,45 -6,47 -1,29 -7,67 11,75z"/>
    <path class="fil77" d="M3192 4184c29,-9 39,-17 73,-25 61,-16 44,10 71,-37 -67,-2 -128,-10 -144,62z"/>
    <path class="fil70" d="M4498 6449c47,32 -8,10 50,50 33,-28 34,-23 37,-71 -16,-23 -3,-8 -25,-25l-17 22 -30 19c-2,1 -11,4 -15,5z"/>
    <path class="fil78" d="M5225 4145c23,-43 19,-23 8,-70 -59,9 -85,-11 -46,71l38 -1z"/>
    <path class="fil72" d="M5679 3932l91 51c72,15 18,3 38,-9 -26,-36 -74,-64 -129,-42z"/>
    <path class="fil77" d="M3777 4142l-2 20 45 -6c-40,-49 -89,-49 -151,-41 30,31 69,38 108,27z"/>
    <path class="fil79" d="M7804 4311c27,-39 18,-41 11,-76 -20,7 -89,27 -40,75 25,24 26,2 29,1z"/>
    <path class="fil76" d="M3513 5678c-14,-50 -24,-75 -70,-104 7,33 4,40 25,68 31,41 17,20 45,36z"/>
    <path class="fil76" d="M3904 5439c50,-26 59,-31 73,-83 -28,10 -28,6 -47,28 -33,38 -14,19 -26,55z"/>
    <path class="fil69" d="M5895 6470c4,-33 1,-13 8,-40 1,-4 4,-6 5,-13 1,-7 4,-8 6,-12l-71 26c28,35 17,23 52,39z"/>
   </g>
  </g>
 </g>
</svg>
