<?xml version="1.0" encoding="UTF-8"?>
<!DOCTYPE svg PUBLIC "-//W3C//DTD SVG 1.1//EN" "http://www.w3.org/Graphics/SVG/1.1/DTD/svg11.dtd">
<!-- Creator: CorelDRAW X7 -->
<svg xmlns="http://www.w3.org/2000/svg" xml:space="preserve" width="2.60278in" height="2.60278in" version="1.1" style="shape-rendering:geometricPrecision; text-rendering:geometricPrecision; image-rendering:optimizeQuality; fill-rule:evenodd; clip-rule:evenodd"
viewBox="0 0 11880 11880"
 xmlns:xlink="http://www.w3.org/1999/xlink">
 <defs>
  <style type="text/css">
   <![CDATA[
    .str0 {stroke:#009B4C;stroke-width:507.157}
    .fil1 {fill:none}
    .fil0 {fill:#009B4C}
   ]]>
  </style>
 </defs>
 <g id="Layer_x0020_1">
  <metadata id="CorelCorpID_0Corel-Layer"/>
  <path class="fil0" d="M5940 1143c1316,0 2509,530 3376,1389 -782,-376 -2070,-328 -3019,-400 -659,-73 -1434,-188 -2104,-188 -586,0 -1113,176 -1522,485 857,-798 2006,-1286 3269,-1286zm3697 1740c687,830 1100,1895 1100,3057 0,871 -232,1689 -638,2393 21,-154 62,-289 62,-516 0,-680 -388,-1382 -796,-1758 -1058,-1058 -3026,-1121 -4376,-1843 -74,-42 -147,-84 -231,-178l-21 -11c21,42 53,63 53,189 0,115 -53,314 -136,314 -32,0 -95,-94 -95,-147 0,-314 262,-513 388,-680 272,-387 973,-670 1591,-670 649,0 1183,52 1707,188 230,74 282,136 324,136 32,0 63,-31 157,-83l869 -252 11 0c21,-52 31,-94 31,-136l0 -3zm-428 6568c-857,798 -2006,1286 -3269,1286 -1167,0 -2236,-416 -3068,-1109 803,314 1861,419 3059,419 963,0 1958,-157 2732,-356 207,-61 387,-141 546,-240zm-7532 -1310c-341,-659 -534,-1408 -534,-2201 0,-1102 372,-2118 997,-2928 -213,345 -334,760 -334,1225 0,481 147,879 335,1193 680,1142 2115,1497 3476,1916 555,178 1141,346 1497,608 178,146 314,387 471,387 84,0 32,-220 199,-220 63,0 84,42 84,105 0,931 -1131,1151 -1948,1151 -1078,0 -2052,-345 -2638,-879 -335,-293 -272,-649 -743,-649 -42,0 -53,21 -377,52l-126 21c-136,83 -270,129 -359,219z"/>
  <circle class="fil1 str0" cx="5940" cy="5940" r="5687"/>
 </g>
</svg>
